<svg width="45" height="52" viewBox="0 0 45 52" fill="none" xmlns="http://www.w3.org/2000/svg">
<path fill-rule="evenodd" clip-rule="evenodd" d="M3.18848 34.1555C2.32815 34.9149 2 35.618 2 36.229C2 36.84 2.32815 37.5431 3.18848 38.3025C4.04737 39.0606 5.34747 39.7889 7.04001 40.4208C10.4176 41.6818 15.1507 42.482 20.4278 42.482C25.7048 42.482 30.4379 41.6818 33.8155 40.4208C35.508 39.7889 36.8081 39.0606 37.667 38.3025C38.5274 37.5431 38.8555 36.84 38.8555 36.229C38.8555 35.618 38.5274 34.9149 37.667 34.1555C36.8081 33.3974 35.508 32.669 33.8155 32.0372C30.4379 30.7762 25.7048 29.976 20.4278 29.976C15.1507 29.976 10.4176 30.7762 7.04001 32.0372C5.34747 32.669 4.04737 33.3974 3.18848 34.1555ZM6.3405 30.1635C9.99438 28.7994 14.9752 27.976 20.4278 27.976C25.8803 27.976 30.8611 28.7994 34.515 30.1635C36.3382 30.8441 37.8832 31.6787 38.9905 32.656C40.0964 33.6322 40.8555 34.8371 40.8555 36.229C40.8555 37.6209 40.0964 38.8258 38.9905 39.8019C37.8832 40.7793 36.3382 41.6138 34.515 42.2945C30.8611 43.6586 25.8803 44.482 20.4278 44.482C14.9752 44.482 9.99438 43.6586 6.3405 42.2945C4.51732 41.6138 2.97229 40.7793 1.86498 39.8019C0.759114 38.8258 0 37.6209 0 36.229C0 34.8371 0.759114 33.6322 1.86498 32.656C2.97229 31.6787 4.51732 30.8441 6.3405 30.1635Z" fill="white"/>
<path fill-rule="evenodd" clip-rule="evenodd" d="M7.04001 47.1558C10.4176 48.4168 15.1507 49.217 20.4278 49.217C25.7048 49.217 30.4379 48.4168 33.8155 47.1558C35.508 46.5239 36.8081 45.7956 37.667 45.0375C38.5274 44.2781 38.8555 43.575 38.8555 42.964H40.8555C40.8555 44.3559 40.0964 45.5608 38.9905 46.5369C37.8832 47.5143 36.3382 48.3488 34.515 49.0295C30.8611 50.3936 25.8803 51.217 20.4278 51.217C14.9752 51.217 9.99438 50.3936 6.3405 49.0295C4.51732 48.3488 2.97229 47.5143 1.86498 46.5369C0.759114 45.5608 0 44.3559 0 42.964H2C2 43.575 2.32815 44.2781 3.18848 45.0375C4.04737 45.7956 5.34747 46.5239 7.04001 47.1558Z" fill="white"/>
<path fill-rule="evenodd" clip-rule="evenodd" d="M0 42.964V36.229H2V42.964H0Z" fill="white"/>
<path fill-rule="evenodd" clip-rule="evenodd" d="M38.8555 42.964V36.229H40.8555V42.964H38.8555Z" fill="white"/>
<path fill-rule="evenodd" clip-rule="evenodd" d="M7.33301 20.1676C6.47268 20.927 6.14453 21.6301 6.14453 22.2411C6.14453 22.852 6.47268 23.5552 7.33301 24.3145C8.1919 25.0727 9.492 25.801 11.1845 26.4329C14.5621 27.6939 19.2952 28.4941 24.5723 28.4941C29.8494 28.4941 34.5824 27.6939 37.96 26.4329C39.6526 25.801 40.9527 25.0727 41.8116 24.3145C42.6719 23.5552 43 22.852 43 22.2411C43 21.6301 42.6719 20.927 41.8116 20.1676C40.9527 19.4095 39.6526 18.6811 37.96 18.0492C34.5824 16.7883 29.8494 15.988 24.5723 15.988C19.2952 15.988 14.5621 16.7883 11.1845 18.0492C9.492 18.6811 8.1919 19.4095 7.33301 20.1676ZM10.485 16.1756C14.1389 14.8114 19.1197 13.988 24.5723 13.988C30.0248 13.988 35.0057 14.8114 38.6595 16.1756C40.4827 16.8562 42.0278 17.6908 43.1351 18.6681C44.2409 19.6442 45 20.8492 45 22.2411C45 23.633 44.2409 24.8379 43.1351 25.814C42.0278 26.7914 40.4827 27.6259 38.6595 28.3066C35.0057 29.6707 30.0248 30.4941 24.5723 30.4941C19.1197 30.4941 14.1389 29.6707 10.485 28.3066C8.66185 27.6259 7.11682 26.7914 6.00951 25.814C4.90365 24.8379 4.14453 23.633 4.14453 22.2411C4.14453 20.8492 4.90365 19.6442 6.00951 18.6681C7.11682 17.6908 8.66185 16.8562 10.485 16.1756Z" fill="white"/>
<path fill-rule="evenodd" clip-rule="evenodd" d="M11.1845 33.1679C14.5621 34.4289 19.2952 35.2291 24.5723 35.2291C29.8494 35.2291 34.5824 34.4289 37.96 33.1679C39.6526 32.536 40.9527 31.8077 41.8116 31.0496C42.6719 30.2902 43 29.587 43 28.9761H45C45 30.368 44.2409 31.5729 43.1351 32.549C42.0278 33.5264 40.4827 34.3609 38.6595 35.0416C35.0057 36.4057 30.0248 37.2291 24.5723 37.2291C19.1197 37.2291 14.1389 36.4057 10.485 35.0416C8.66185 34.3609 7.11682 33.5264 6.00951 32.549C4.90364 31.5729 4.14453 30.368 4.14453 28.9761H6.14453C6.14453 29.587 6.47268 30.2902 7.33301 31.0496C8.1919 31.8077 9.492 32.536 11.1845 33.1679Z" fill="white"/>
<path fill-rule="evenodd" clip-rule="evenodd" d="M4.14453 28.976V22.2411H6.14453V28.976H4.14453Z" fill="white"/>
<path fill-rule="evenodd" clip-rule="evenodd" d="M43 28.976V22.2411H45V28.976H43Z" fill="white"/>
<path fill-rule="evenodd" clip-rule="evenodd" d="M3.18848 6.17955C2.32815 6.93892 2 7.64205 2 8.25303C2 8.864 2.32815 9.56713 3.18848 10.3265C4.04737 11.0846 5.34747 11.813 7.04001 12.4449C10.4176 13.7058 15.1507 14.5061 20.4278 14.5061C25.7048 14.5061 30.4379 13.7058 33.8155 12.4449C35.508 11.813 36.8081 11.0846 37.667 10.3265C38.5274 9.56713 38.8555 8.864 38.8555 8.25303C38.8555 7.64205 38.5274 6.93892 37.667 6.17955C36.8081 5.42144 35.508 4.69309 33.8155 4.0612C30.4379 2.80024 25.7048 2 20.4278 2C15.1507 2 10.4176 2.80024 7.04001 4.0612C5.34747 4.69309 4.04737 5.42144 3.18848 6.17955ZM6.3405 2.18752C9.99438 0.823407 14.9752 0 20.4278 0C25.8803 0 30.8611 0.823407 34.515 2.18752C36.3382 2.86818 37.8832 3.70272 38.9905 4.6801C40.0964 5.6562 40.8555 6.86113 40.8555 8.25303C40.8555 9.64492 40.0964 10.8499 38.9905 11.826C37.8832 12.8033 36.3382 13.6379 34.515 14.3185C30.8611 15.6826 25.8803 16.5061 20.4278 16.5061C14.9752 16.5061 9.99438 15.6826 6.3405 14.3185C4.51732 13.6379 2.97229 12.8033 1.86498 11.826C0.759114 10.8499 0 9.64492 0 8.25303C0 6.86113 0.759114 5.6562 1.86498 4.6801C2.97229 3.70272 4.51732 2.86818 6.3405 2.18752Z" fill="white"/>
<path fill-rule="evenodd" clip-rule="evenodd" d="M7.04001 19.1799C10.4176 20.4408 15.1507 21.2411 20.4278 21.2411C25.7048 21.2411 30.4379 20.4408 33.8155 19.1799C35.508 18.548 36.8081 17.8196 37.667 17.0615C38.5274 16.3021 38.8555 15.599 38.8555 14.988H40.8555C40.8555 16.3799 40.0964 17.5849 38.9905 18.561C37.8832 19.5383 36.3382 20.3729 34.515 21.0535C30.8611 22.4177 25.8803 23.2411 20.4278 23.2411C14.9752 23.2411 9.99438 22.4177 6.3405 21.0535C4.51732 20.3729 2.97229 19.5383 1.86498 18.561C0.759114 17.5849 0 16.3799 0 14.988H2C2 15.599 2.32815 16.3021 3.18848 17.0615C4.04737 17.8196 5.34747 18.548 7.04001 19.1799Z" fill="white"/>
<path fill-rule="evenodd" clip-rule="evenodd" d="M0 14.988V8.25305H2V14.988H0Z" fill="white"/>
<path fill-rule="evenodd" clip-rule="evenodd" d="M38.8555 14.988V8.25305H40.8555V14.988H38.8555Z" fill="white"/>
</svg>
